<?xml version="1.0" encoding="utf-8"?>
<!-- Generator: Adobe Illustrator 24.0.1, SVG Export Plug-In . SVG Version: 6.00 Build 0)  -->
<svg version="1.1" id="Layer_1" xmlns="http://www.w3.org/2000/svg" xmlns:xlink="http://www.w3.org/1999/xlink" x="0px" y="0px"
	 viewBox="0 0 50 50" style="enable-background:new 0 0 50 50;" xml:space="preserve">
<style type="text/css">
	.st0{fill:#DD9B00;}
	.st1{fill:#545B6C;}
	.st2{fill:#FFFFFF;}
</style>
<g>
	<g>
		<path class="st0" d="M21.58,43.07c-2.57,0-4.66-2.09-4.66-4.66c0-2.57,2.09-4.66,4.66-4.66c2.57,0,4.66,2.09,4.66,4.66
			C26.24,40.98,24.15,43.07,21.58,43.07z M21.58,36.17c-1.24,0-2.24,1.01-2.24,2.24s1.01,2.24,2.24,2.24c1.24,0,2.24-1.01,2.24-2.24
			S22.82,36.17,21.58,36.17z"/>
		<path class="st0" d="M34.85,43.07c-2.57,0-4.66-2.09-4.66-4.66s2.09-4.66,4.66-4.66s4.66,2.09,4.66,4.66S37.42,43.07,34.85,43.07z
			 M34.85,36.17c-1.24,0-2.24,1.01-2.24,2.24s1.01,2.24,2.24,2.24s2.24-1.01,2.24-2.24S36.09,36.17,34.85,36.17z"/>
		<path class="st0" d="M43.64,16.51h-28l-2.82-9.21c-0.16-0.51-0.62-0.85-1.15-0.85H4.66C4,6.44,3.46,6.98,3.46,7.65
			S4,8.86,4.66,8.86h6.12l6.24,20.38c0.16,0.51,0.62,0.85,1.15,0.85h21.75c0.67,0,1.21-0.54,1.21-1.21s-0.54-1.21-1.21-1.21H19.07
			l-0.97-3.17h24.11c0.67,0,1.21-0.54,1.21-1.21s-0.54-1.21-1.21-1.21H17.36l-0.97-3.18h27.26c0.67,0,1.21-0.54,1.21-1.21
			S44.31,16.51,43.64,16.51z"/>
	</g>
</g>
</svg>
