<svg xmlns="http://www.w3.org/2000/svg" width="23.563" height="14.726" viewBox="0 0 23.563 14.726">
  <path id="Контур_27" data-name="Контур 27" d="M5243.636,3971.117c3.409,0,2.194-2.158,2.457-2.778,0-.463-.008-.909.008-1.18a5.24,5.24,0,0,1,1.778,1.342c1.624,1.64,2.04,2.616,3.352,2.616h2.417a1.594,1.594,0,0,0,1.363-.583,1.524,1.524,0,0,0,.175-1.412c-.539-1.692-3.683-4.615-3.878-4.923.029-.057.077-.133.1-.172h0c.621-.82,2.989-4.368,3.337-5.787l0-.008a1.413,1.413,0,0,0-.163-1.306,1.5,1.5,0,0,0-1.275-.535h-2.416a1.778,1.778,0,0,0-1.733,1.151,17.045,17.045,0,0,1-3.072,5c-.033-1.362-.011-2.4.007-3.174.035-1.507.149-2.974-1.415-2.974h-3.8a1.333,1.333,0,0,0-.9,2.34c.888,1.114.319,1.734.511,4.823a18.052,18.052,0,0,1-3.012-5.723,1.768,1.768,0,0,0-1.784-1.439h-2.416a1.379,1.379,0,0,0-1.565,1.428c0,2.009,4.446,13.3,11.923,13.3Zm-7.942-13.252c.213,0,.235,0,.393.448.961,2.831,3.117,7.019,4.692,7.019,1.183,0,1.183-1.213,1.183-1.669v-3.635a3.469,3.469,0,0,0-.791-2.164l3.444,0c0,.017-.019,4.021.01,4.991,0,1.377,1.094,2.167,2.8.439a21.011,21.011,0,0,0,3.1-5.2c.073-.177.137-.236.369-.236h2.426l0,.008c-.221,1.031-2.4,4.316-3.131,5.336-.012.016-.023.033-.034.049a1.467,1.467,0,0,0,.045,1.919h0c.057.068.205.229.421.453.671.693,2.975,3.063,3.179,4.006-.136.022-.283.006-2.566.011-.486,0-.866-.727-2.316-2.19-1.3-1.268-2.15-1.786-2.92-1.786-1.5,0-1.388,1.214-1.374,2.683,0,1.592,0,1.089.006,1.189a2.972,2.972,0,0,1-.991.1c-6.229,0-10.286-9.888-10.442-11.778.054,0,.8,0,2.5,0Z" transform="translate(-5231.713 -3956.391)" fill="#636464"/>
</svg>
